<?xml version="1.0" encoding="UTF-8" standalone="no"?>
<!-- Created with Inkscape (http://www.inkscape.org/) -->

<svg
   xmlns:dc="http://purl.org/dc/elements/1.1/"
   xmlns:cc="http://creativecommons.org/ns#"
   xmlns:rdf="http://www.w3.org/1999/02/22-rdf-syntax-ns#"
   xmlns:svg="http://www.w3.org/2000/svg"
   xmlns="http://www.w3.org/2000/svg"
   xmlns:sodipodi="http://sodipodi.sourceforge.net/DTD/sodipodi-0.dtd"
   xmlns:inkscape="http://www.inkscape.org/namespaces/inkscape"
   width="45px"
   height="45px"
   viewBox="0 0 45 45"
   version="1.1"
   id="SVGRoot"
   inkscape:version="0.92.4 (unknown)"
   sodipodi:docname="teste.svg">
  <defs
     id="defs3852" />
  <sodipodi:namedview
     id="base"
     pagecolor="#ffffff"
     bordercolor="#666666"
     borderopacity="1.0"
     inkscape:pageopacity="0.0"
     inkscape:pageshadow="2"
     inkscape:zoom="5.6888889"
     inkscape:cx="22.5"
     inkscape:cy="22.5"
     inkscape:document-units="px"
     inkscape:current-layer="layer1"
     showgrid="false"
     inkscape:window-width="1305"
     inkscape:window-height="744"
     inkscape:window-x="61"
     inkscape:window-y="24"
     inkscape:window-maximized="1"
     inkscape:grid-bbox="true" />
  <metadata
     id="metadata3855">
    <rdf:RDF>
      <cc:Work
         rdf:about="">
        <dc:format>image/svg+xml</dc:format>
        <dc:type
           rdf:resource="http://purl.org/dc/dcmitype/StillImage" />
        <dc:title></dc:title>
      </cc:Work>
    </rdf:RDF>
  </metadata>
  <g
     inkscape:label="Camada 1"
     inkscape:groupmode="layer"
     id="layer1">
    <path
       d="m 19.498783,25.962215 c 0.116173,0 0.232492,-0.0515 0.320946,-0.154392 0.177386,-0.205651 0.177386,-0.538839 0,-0.744504 l -3.804282,-4.41091 0.571176,-0.662518 0.892349,1.034644 c 0.08849,0.102865 0.204826,0.154391 0.320945,0.154391 0.116173,0 0.232493,-0.0515 0.321186,-0.154391 l 2.547938,-2.954211 c 0.846239,-0.981175 0.846239,-2.577428 0,-3.558337 -0.177386,-0.205665 -0.464744,-0.205665 -0.642131,0 l -3.761233,4.360981 c 0,0 0,0 -2.39e-4,2.79e-4 0,0 -2.4e-4,0 -2.4e-4,2.8e-4 l -0.892109,1.034098 -1.105452,-1.281721 c 0.445822,-0.851748 0.351912,-1.979623 -0.282168,-2.714812 l -1.372703,-1.591609 c -0.177387,-0.205664 -0.464985,-0.205664 -0.642371,0 -0.177147,0.205678 -0.177147,0.539133 0,0.744518 l 1.372942,1.591595 c 0.189217,0.219385 0.29352,0.511161 0.29352,0.821581 0,0.310419 -0.10433,0.602196 -0.29352,0.82158 -0.189203,0.219371 -0.440858,0.340308 -0.708574,0.340308 -0.267504,0 -0.519145,-0.120963 -0.708362,-0.340308 l -1.372943,-1.591608 c -0.177386,-0.205665 -0.464744,-0.205665 -0.642131,0 -0.177373,0.205398 -0.177373,0.538853 0,0.744531 l 1.372716,1.591595 c 0.360908,0.418462 0.840557,0.648811 1.35072,0.648811 0.355238,0 0.695573,-0.111914 0.991208,-0.320839 l 5.551626,6.436576 c 0.08863,0.102866 0.204813,0.154392 0.321186,0.154392 z m 0.78947,-10.2642 c 0.204826,0.536924 0.117503,1.18821 -0.261343,1.627511 l -2.226993,2.582099 -0.571176,-0.662252 z m 0,0"
       id="path3803"
       inkscape:connector-curvature="0"
       style="stroke-width:0.06519563" />
    <path
       d="m 12.313577,17.849569 c 0.08863,0.102865 0.205053,0.154112 0.321186,0.154112 0.116172,0 0.232478,-0.05123 0.321172,-0.154112 0.177147,-0.205665 0.177147,-0.53912 0,-0.744518 l -1.372943,-1.591875 c -0.177147,-0.205664 -0.464745,-0.205664 -0.642131,0 -0.177387,0.205678 -0.177387,0.539133 0,0.744531 z m 0,0"
       id="path3805"
       inkscape:connector-curvature="0"
       style="stroke-width:0.06519563" />
    <path
       d="m 13.740201,21.801137 -2.813526,3.262182 c -0.177386,0.205665 -0.177386,0.539119 0,0.744504 0.08863,0.102866 0.204813,0.154392 0.321186,0.154392 0.116173,0 0.232239,-0.0515 0.320946,-0.154392 l 2.813526,-3.262155 c 0.177386,-0.205399 0.177386,-0.538853 0,-0.744531 -0.177374,-0.205665 -0.464985,-0.205665 -0.642132,0 z m 0,0"
       id="path3807"
       inkscape:connector-curvature="0"
       style="stroke-width:0.06519563" />
    <path
       d="m 13.629764,28.796607 c -0.785464,0 -1.424748,0.741217 -1.424748,1.651917 0,0.910979 0.639284,1.652197 1.424748,1.652197 0.785691,0 1.424974,-0.741218 1.424974,-1.652197 0,-0.9107 -0.639283,-1.651917 -1.424974,-1.651917 z m 0,2.251092 c -0.284763,0 -0.516537,-0.268728 -0.516537,-0.599175 0,-0.330168 0.231774,-0.598909 0.516537,-0.598909 0.28499,0 0.516776,0.268741 0.516776,0.598909 0,0.330447 -0.231786,0.599175 -0.516776,0.599175 z m 0,0"
       id="path3809"
       inkscape:connector-curvature="0"
       style="stroke-width:0.06519563" />
    <path
       d="m 33.044008,28.796607 c -0.785691,0 -1.424735,0.741217 -1.424735,1.651917 0,0.910979 0.639044,1.652197 1.424735,1.652197 0.785451,0 1.424748,-0.741218 1.424748,-1.652197 0,-0.9107 -0.639297,-1.651917 -1.424748,-1.651917 z m 0,2.251092 c -0.285003,0 -0.516537,-0.268728 -0.516537,-0.599175 0,-0.330168 0.231787,-0.598909 0.516537,-0.598909 0.284763,0 0.516537,0.268741 0.516537,0.598909 0,0.330447 -0.231774,0.599175 -0.516537,0.599175 z m 0,0"
       id="path3811"
       inkscape:connector-curvature="0"
       style="stroke-width:0.06519563" />
    <path
       d="m 36.693846,23.541095 -5.728295,-0.885469 -1.539443,-5.801485 c -0.248341,-0.935105 -0.982,-1.563357 -1.825631,-1.563357 h -3.809486 v -2.287301 c 0,-0.910979 -0.639057,-1.651917 -1.424748,-1.651917 H 8.776306 c -0.785438,0 -1.424735,0.740938 -1.424735,1.651917 v 16.319628 c 0,0.910966 0.639297,1.65193 1.424735,1.65193 h 1.518884 c 0.222325,1.903931 1.632635,3.376519 3.334574,3.376519 1.702166,0 3.112235,-1.472588 3.3348,-3.376519 h 12.744644 c 0.222551,1.903931 1.632634,3.376519 3.3348,3.376519 1.701939,0 3.112022,-1.472588 3.334574,-3.376519 h 0.06268 c 1.05342,0 1.910291,-0.993511 1.910291,-2.214643 v -3.023862 c 0,-1.105399 -0.712606,-2.049287 -1.657692,-2.195441 z m -6.691372,-0.93456 h -4.238753 c -0.0173,0 -0.03114,-0.0165 -0.03114,-0.03646 v -3.939247 c 0,-0.01996 0.01397,-0.0362 0.03114,-0.0362 h 3.173982 z m -16.37271,10.692004 c -1.354978,0 -2.457356,-1.278168 -2.457835,-2.84919 0,-2.79e-4 0,-5.46e-4 0,-8.25e-4 0,-2.79e-4 0,-5.46e-4 0,-8.25e-4 4.79e-4,-1.571035 1.102857,-2.84919 2.457835,-2.84919 0.432328,0 0.857111,0.13161 1.228665,0.381175 0.217122,0.145343 0.495018,0.05948 0.620613,-0.192237 0.125621,-0.251735 0.05137,-0.573666 -0.165796,-0.719554 -0.509683,-0.341692 -1.091732,-0.522392 -1.683482,-0.522392 -1.701939,0 -3.112023,1.472575 -3.334574,3.376519 H 8.776306 c -0.28475,0 -0.516537,-0.268741 -0.516537,-0.598909 V 13.003483 c 0,-0.330168 0.231787,-0.598909 0.516537,-0.598909 h 13.589937 c 0.284764,0 0.516537,0.268741 0.516537,0.598909 v 3.939511 c 0,0.290951 0.203403,0.526504 0.454099,0.526504 0.25071,0 0.454112,-0.235553 0.454112,-0.526504 v -0.599188 h 3.809486 c 0.442508,0 0.827316,0.329622 0.957382,0.82021 l 0.100337,0.377874 h -2.894422 c -0.518187,0 -0.939656,0.488392 -0.939656,1.089217 v 3.939233 c 0,0.600545 0.421469,1.089217 0.939656,1.089217 h 4.82341 l 5.986576,0.92551 c 0.402294,0.06228 0.724437,0.400085 0.831335,0.835287 H 36.92687 c -0.250936,0 -0.454099,0.235553 -0.454099,0.526504 0,0.290685 0.203163,0.526518 0.454099,0.526518 h 0.516537 v 1.197805 h -2.03731 c -0.608304,-0.695148 -1.442474,-1.125414 -2.362036,-1.125414 -1.702165,0 -3.112249,1.472588 -3.3348,3.376519 h -5.918216 v -1.198084 h 4.733053 c 0.250696,0 0.454112,-0.235566 0.454112,-0.526504 0,-0.290685 -0.203416,-0.526517 -0.454112,-0.526517 H 23.791045 V 19.19382 c 0,-0.290951 -0.203403,-0.526503 -0.454113,-0.526503 -0.250696,0 -0.454099,0.235552 -0.454099,0.526503 v 10.7282 h -5.91751 c -0.03047,-0.262167 -0.08344,-0.51993 -0.159635,-0.770294 -0.0833,-0.274237 -0.342703,-0.418475 -0.579227,-0.321944 -0.236498,0.09674 -0.360669,0.397343 -0.277418,0.67158 0.09222,0.303554 0.138835,0.622211 0.138835,0.947162 0,1.571581 -1.102617,2.850015 -2.458061,2.850015 z m 19.414244,0 c -1.355443,0 -2.458061,-1.278434 -2.458061,-2.850015 0,-1.571581 1.102618,-2.850015 2.458061,-2.850015 1.355217,0 2.458061,1.278434 2.458061,2.850015 0,1.571581 -1.102844,2.850015 -2.458061,2.850015 z m 3.397478,-3.376519 h -0.06294 c -0.04937,-0.424503 -0.157984,-0.827622 -0.315743,-1.197818 h 1.380515 v 0.0362 c 0,0.640587 -0.449375,1.161622 -1.001868,1.161622 z m 0,0"
       id="path3813"
       inkscape:connector-curvature="0"
       style="stroke-width:0.06519563" />
  </g>
</svg>
